<svg xmlns="http://www.w3.org/2000/svg" width="17" height="17" viewBox="0 0 17 17"><path d="M8.052 12.454l-2.7-2.52c-.213-.2-.558-.2-.77 0L0 14.2v.582c0 .542.475.983 1.055.983H15.82c.58 0 1.055-.44 1.055-.983v-.58l-4.58-4.27c-.215-.198-.56-.198-.772 0l-2.7 2.52c-.213.2-.558.2-.77.002zm5.74-3.918l2.698 2.52c.212.2.385.124.385-.167V5.464c0-.292-.173-.367-.385-.168l-2.7 2.52c-.213.2-.213.52 0 .72zM1.054 1C.475 1 0 1.443 0 1.984v.177l8.01 7.505c.213.2.557.2.77 0l8.095-7.593v-.088c0-.54-.475-.984-1.055-.984H1.055zM0 5.465v5.424c0 .29.173.366.385.167l2.7-2.52c.213-.2.213-.52 0-.72l-2.7-2.52C.173 5.097 0 5.173 0 5.465z"/></svg>