<svg xmlns="http://www.w3.org/2000/svg" width="18" height="18" viewBox="0 0 18 18"><path d="M18 3.73c-.663.294-1.374.493-2.12.582.76-.457 1.347-1.18 1.622-2.042-.712.423-1.503.73-2.344.895C14.484 2.448 13.523 2 12.462 2 10.422 2 8.77 3.652 8.77 5.692c0 .29.03.57.095.842-3.07-.155-5.79-1.625-7.612-3.858-.318.545-.5 1.18-.5 1.855 0 1.283.652 2.413 1.643 3.075-.605-.02-1.175-.185-1.673-.46 0 .014 0 .03 0 .045 0 1.79 1.273 3.283 2.962 3.62-.31.085-.636.13-.973.13-.237 0-.47-.02-.694-.065.47 1.468 1.834 2.535 3.45 2.565-1.264.99-2.856 1.58-4.586 1.58-.3 0-.592-.018-.88-.053 1.633 1.05 3.574 1.66 5.66 1.66 6.792 0 10.507-5.628 10.507-10.507 0-.16-.005-.32-.013-.48.72-.517 1.348-1.168 1.843-1.91z"/></svg>