<svg xmlns="http://www.w3.org/2000/svg" width="54" height="54" viewBox="0 0 54 54"><circle fill="#FAC960" cx="27" cy="27" r="27"/><path opacity=".3" fill="#fff" d="M35.437 24.71l2.682-4.31-11.262-4.277 5.876-6.564-2.544-2.514-11.624 7.582 2.39 2.64-2.39 3.13 8.373 5.594-10.58 8.54 11.434 9.7 13.074-16.204z"/><path fill="#fff" d="M21.997 31.975c-4.142 0-7.5 3.358-7.5 7.5s3.358 7.5 7.5 7.5 7.5-3.358 7.5-7.5-3.358-7.5-7.5-7.5zm14-12c-3.038 0-5.5 2.462-5.5 5.5s2.462 5.5 5.5 5.5 5.5-2.462 5.5-5.5-2.463-5.5-5.5-5.5zM20.753 21.14c2.002 0 3.625-1.624 3.625-3.626s-1.623-3.625-3.625-3.625-3.625 1.622-3.625 3.624 1.623 3.625 3.625 3.625zM33.295 8.26c0-.99-.802-1.792-1.792-1.792S29.71 7.27 29.71 8.26s.803 1.792 1.793 1.792 1.792-.802 1.792-1.792z"/></svg>